<svg xmlns="http://www.w3.org/2000/svg" width="331" height="125" viewBox="0 0 331 125"><defs><style>@media screen and (max-width:300px){ #Crinkles, #Shadow, #Detail, #Cherry .cls-9 {display: none;} #Icing .cls-7  {fill:#fff} } .cls-1{fill:#124a70;fill-opacity:0.15;}.cls-2{fill:#000222;}.cls-3{fill:#f2a251;}.cls-4{fill:#525d63;}.cls-5{fill:#343c40;}.cls-6{fill:#252b2e;}.cls-7{fill:#c4e6ed;}.cls-8{fill:#fff;}.cls-9{fill:#89c7d6;}.cls-10{fill:#bf2d2d;}.cls-11{fill:#a82424;}</style></defs><title>FFT_on_white</title><g id="Shadow"><ellipse class="cls-1" cx="146.9" cy="37.9" rx="11.3" ry="3.9"/></g><g id="Base"><path class="cls-2" d="M110.1,39.9V20.1h16v5.8h-8.4V28h5.7l-.6,4.9h-5.1v7Z"/><path class="cls-2" d="M215,39.9V20.1h15.8V26h-8.2V28h5.7l-.6,4.9h-5.1v7Z"/><path class="cls-2" d="M170.9,30.2l-.2,4.1h6.2v5.8H163.1V20.1h7.7Z"/><path class="cls-2" d="M190.8,30.2l-.2,4.1H197v5.8H183.2V20.1h7.7Z"/><path class="cls-2" d="M243.3,37l-.8,2.9h-7.7l6-19.8h9.6l6.3,19.8h-8.1l-.8-2.9Zm3.8-4.8-1.5-5.4-1.5,5.4Z"/><path class="cls-2" d="M278.9,20.1v6.7h-5.4V39.9h-7.9V26.7h-5.5V20.1Z"/><path class="cls-2" d="M158.3,19.7H130.6L135.2,37h0c.6,2.4,4.5,4,9.3,4s8.8-1.6,9.3-4h0Z"/><path class="cls-3" d="M124.7,63.4c1.2-7,2-17.4-10.6-17.4-9.1,0-19.2,6.1-25.9,31.9h-.4l8.3-43.3a24.1,24.1,0,0,1-16.6,6H77.3L70.1,84.7c-2.9,16.2,4.1,17,17.9,15l.3-.3c-3.4-1.7-.6-14.3,1.1-21.3,3.7-15,10.7-26.6,16.3-26.6,2.4,0,2.4,2.9,1.7,7.7l-4,25c-2.6,16.3,9.8,17.7,20.7,15.5l.3-.3c-4.4-1.7-3.5-13-2-21.7Z"/><path class="cls-3" d="M37.1,13.4c16.9,0,43.1,6.9,56.8,6.9,4.6,0,8.3-.7,11.9-4l.4.2C98.3,31.9,89.3,36.1,79.6,36.1a53.8,53.8,0,0,1-12.3-1.7c-3.3,1.2-5.4,6.2-6.7,14.1L54.8,84.6c-1.7,10.8-.1,14.4,8.3,14.4v.7H21.8v-.7c10.6,0,11.6-5.6,13.4-17.5l4.6-30.2c1.9-12.7,17.7-16.6,26.3-17.4C49.7,29.6,31.4,19.5,17.8,19.5c-6.8,0-11,2.5-11,7.9s4,8,8.5,8a11.4,11.4,0,0,0,8.9-4.2C28.3,33,30,36,30,39.1c0,7.7-6.6,11.8-13.4,11.8S2.2,46.5,1.6,36.7C2.1,18.3,20.6,13.4,37.1,13.4Z"/><path class="cls-3" d="M136.1,52.9c.3-2-1.3-3.5-4.1-2.6l-.3-.3c3.5-1.7,10.6-3.9,15.4-3.9s7.8,2.1,6.7,9L150,78.3c-1.2,7.1-3.5,19.5.2,21.2l-.3.3a38.2,38.2,0,0,1-7.4.8c-7.7,0-13.7-3.4-11.6-15.8Z"/><path class="cls-3" d="M165.1,52.9c.3-2-1.3-3.5-4.1-2.6l-.3-.3c3.5-1.7,10.6-3.9,15.4-3.9s8.1,2.1,6.7,9l-5.5,22.8h.4c6.8-25.8,16.8-31.9,25.9-31.9,12.6,0,11.8,10.4,10.6,17.4l-2.4,14.3c-1.5,8.7-2.4,20,2,21.7l-.3.3a36.6,36.6,0,0,1-7.4.8c-8.4,0-15.3-3.6-13.3-16.3l4-25c.7-4.7.7-7.7-1.7-7.7-5.6,0-12.6,11.6-16.3,26.6-1.7,7-4.5,19.6-1.1,21.3l-.3.3a56.4,56.4,0,0,1-8.5.8c-8,0-11.6-3.4-9.4-15.8Z"/><path class="cls-3" d="M269.2,99.1c-2.2,13.8-12.6,23.4-31.8,23.4-8.4,0-20-1.8-20-11,0-5.6,4.5-9.8,10.3-9.8,4.1,0,8.7,2.9,8.1,8.4-3.7.4-5.6,3-5.6,5.6s2.2,5.9,7.8,5.9c7.9,0,10.3-5.9,12.1-15.2l7.3-37.6h-.4c-6.4,25.1-14.1,31.9-23.2,31.9-10.6,0-14.3-9.4-14.3-18.7,0-16,14.4-35.7,32.9-35.7,10,0,18,8.7,25.2.4ZM237.6,87c0,4.1.9,8,3.5,8,6.2,0,12.8-15.7,15.4-30.6l1.1-6.2c1.5-8.2.7-11.4-4.2-11.4C245.1,46.9,237.6,70.5,237.6,87Z"/><path class="cls-3" d="M278,89.9a9.5,9.5,0,0,1,9.4-9.7c3.9,0,7.9,2.4,7.3,7.4a7,7,0,0,0-4.7,6.7c0,3.2,2.1,5.3,9.4,5.3,4.6,0,15.4-1,15.4-7.7,0-10-31.5-9.5-31.5-26.4,0-13.9,15.5-19.4,28.1-19.4,8.4,0,19.1,1.9,19.1,9.6a8.5,8.5,0,0,1-8.4,8.7c-3.4,0-6.7-2.3-6.2-6.8a6.1,6.1,0,0,0,4.1-5.4c0-3.4-3.9-5.1-9.9-5.1s-11.4,1.9-11.4,7.8c0,10.1,31,8.1,31,25,0,14.6-17.5,20.7-31.1,20.7C289.5,100.5,278,98.5,278,89.9Z"/></g><g id="Crinkles"><polygon class="cls-4" points="132.5 21.3 136.4 38.6 133.8 21.9 132.5 21.3"/><polygon class="cls-5" points="134.9 22.4 138 39.7 136.4 22.5 134.9 22.4"/><polygon class="cls-6" points="137.9 22.6 139.7 40.3 139.4 22.7 137.9 22.6"/></g><g id="Icing"><path class="cls-7" d="M158.2,18.3c-1.3-3-7.3-6.1-13.7-6.1s-12.1,3.2-13.8,6.3a2.2,2.2,0,0,0-.2,1.1,1.8,1.8,0,0,0,.3.8,7,7,0,0,0,3.6,2.1l3,.9c1.7.4,4.1.5,5.2,2.1a3.9,3.9,0,0,1,0,3.6,6.9,6.9,0,0,0-.9,2.6,2.9,2.9,0,0,0,5.7,0,6.9,6.9,0,0,0-.9-2.6,3.9,3.9,0,0,1,0-3.6c1.1-1.6,3.5-1.7,5.2-2.1l3-.9a7,7,0,0,0,3.6-2.1,1.8,1.8,0,0,0,.3-.8A3.1,3.1,0,0,0,158.2,18.3Z"/><path class="cls-8" d="M157.4,18.3c0-2.9-7.6-6.5-13-6.5s-13.3,4-13.3,6.5,6.7,4.2,13.3,4.2S157.4,20.3,157.4,18.3Z"/></g><g id="Cherry"><ellipse class="cls-9" cx="145.5" cy="14.2" rx="3.6" ry="1.2"/><circle class="cls-10" cx="144.4" cy="10" r="5"/><path class="cls-11" d="M148.3,6.9a5,5,0,0,1-8.6,4.9,5,5,0,1,0,8.6-4.9Z"/></g><g id="Detail"><path class="cls-7" d="M154.3,15a1.7,1.7,0,0,1,.3.8c0,2-5.1,3.7-11.5,3.7s-9.3-1-10.9-2.5h0c0,2.1,5.3,3.8,11.8,3.8s11.8-1.7,11.8-3.8A3,3,0,0,0,154.3,15Z"/><path class="cls-7" d="M151.8,13.8a1,1,0,0,1,.2.6c0,1.3-3.9,2.4-8.8,2.4s-7.1-.7-8.3-1.6h0c0,1.4,4,2.5,9,2.5s9-1.1,9-2.5S152.5,14.3,151.8,13.8Z"/><path class="cls-8" d="M143.6,26.9a8.8,8.8,0,0,1-.8,3.3c-.7,1.2.1,2,.6,1.7S143.6,26.9,143.6,26.9Z"/><circle class="cls-8" cx="142.4" cy="7.9" r="0.8"/></g></svg>
